M48
;GenerationSoftware,Autodesk,EAGLE,8.6.3*%
;CreationDate,2019-03-08T18:09:36Z*%
FMAT,2
ICI,OFF
METRIC,TZ,000.000
T11C0.550
T10C0.813
T9C0.950
T8C1.000
T7C1.016
T6C1.194
T5C1.321
T4C1.500
T3C2.300
T2C3.000
T1C3.810
%
G90
M71
T1
X96012Y95250
X96012Y3810
X4572Y95250
T2
X42672Y71120
X12954Y86360
T3
X94742Y86360
X94742Y73220
T4
X47244Y87376
X47244Y70104
X7620Y70104
X7620Y87376
T5
X76835Y33909
X76835Y16129
X64643Y39751
X76835Y4191
X64643Y4191
X64643Y16129
X78867Y27940
X76835Y21971
X64643Y69469
X64643Y57531
X76835Y57531
X76835Y69469
X78867Y63500
X64643Y51689
X76835Y39751
X76835Y51689
X78867Y45720
X64643Y33909
X64643Y21971
X78867Y10160
T6
X94742Y44410
X94742Y64730
X94742Y59730
X94742Y54570
X94742Y49570
X94742Y34250
X7112Y39330
X7112Y44490
X7112Y49490
X7112Y29170
X94742Y29250
X7112Y57190
X7112Y62190
X94742Y39410
X7112Y3850
X7112Y24170
X7112Y14010
X7112Y19010
X7112Y34330
X7112Y8850
T7
X23622Y93980
X27432Y93980
X31242Y93980
T8
X17832Y60960
X11732Y60960
X14732Y56160
T9
X92032Y78790
X92032Y80790
X92032Y76290
X92032Y83290
T10
X36322Y95250
X36322Y92710
X13462Y92710
X13462Y95250
X18542Y95250
X18542Y92710
X66802Y80010
X69342Y80010
X73152Y80010
X75692Y80010
X28702Y57150
X31242Y57150
X36322Y57150
X38862Y57150
X84582Y6350
X84582Y13970
X84582Y24130
X84582Y41910
X84582Y49530
X84582Y59690
X84582Y67310
X37592Y50800
X37592Y48260
X37592Y35560
X37592Y33020
X37592Y45720
X37592Y43180
X37592Y38100
X37592Y40640
X45212Y33020
X45212Y35560
X45212Y38100
X45212Y40640
X45212Y43180
X45212Y45720
X45212Y48260
X45212Y50800
X37592Y25400
X37592Y22860
X37592Y10160
X37592Y7620
X37592Y20320
X37592Y17780
X37592Y12700
X45212Y7620
X45212Y10160
X45212Y12700
X45212Y15240
X45212Y17780
X45212Y20320
X45212Y22860
X45212Y25400
X31242Y34290
X18542Y19050
X18542Y16510
X26162Y16510
X26162Y19050
X18542Y13970
X26162Y13970
X18542Y29210
X18542Y26670
X26162Y26670
X26162Y29210
X18542Y24130
X26162Y24130
X18542Y39370
X18542Y36830
X26162Y36830
X26162Y39370
X18542Y34290
X26162Y34290
X18542Y8890
X18542Y6350
X26162Y6350
X26162Y8890
X18542Y3810
X26162Y3810
X18542Y49530
X18542Y46990
X26162Y46990
X26162Y49530
X18542Y44450
X26162Y44450
X56642Y66040
X56642Y58420
X56642Y31750
X56642Y24130
X56642Y49530
X56642Y41910
X13462Y10160
X13462Y2540
X31242Y11430
X31242Y3810
X31242Y41910
X13462Y50800
X13462Y43180
X31242Y52070
X31242Y44450
X56642Y13970
X56642Y6350
X13462Y20320
X13462Y12700
X31242Y21590
X31242Y13970
X13462Y30480
X13462Y22860
X31242Y31750
X31242Y24130
X13462Y40640
X13462Y33020
X76962Y95250
X74422Y95250
X71882Y95250
X66802Y95250
X64262Y95250
X61722Y95250
X59182Y95250
X56642Y95250
X54102Y95250
X50292Y7620
X50292Y5080
X52832Y5080
X50292Y25400
X50292Y22860
X52832Y22860
X50292Y43180
X50292Y40640
X52832Y40640
X50292Y59690
X50292Y57150
X52832Y57150
X84582Y31750
X37592Y15240
X42672Y92710
X42672Y95250
X69342Y95250
T11
X24892Y62230
X74867Y2096
X50292Y38100
X41402Y63500
X41402Y52070
X57912Y92710
X40132Y63500
X40132Y52070
X78232Y90170
X84582Y90170
X85852Y80010
X66802Y8890
X38862Y60960
X84582Y81280
X51562Y96520
X51562Y93980
X51562Y91440
X35052Y59690
X84582Y78740
X66802Y83820
X57912Y55880
X52832Y92710
X59182Y83820
X61722Y74930
X19812Y53340
X59182Y48260
X43942Y21590
X74422Y63500
X69342Y91440
X58297Y90125
M30