G04 EAGLE Gerber X2 export*
%TF.Part,Single*%
%TF.FileFunction,Profile,NP*%
%TF.FilePolarity,Positive*%
%TF.GenerationSoftware,Autodesk,EAGLE,8.6.3*%
%TF.CreationDate,2019-03-08T18:09:36Z*%
G75*
%MOMM*%
%FSLAX34Y34*%
%LPD*%
%AMOC8*
5,1,8,0,0,1.08239X$1,22.5*%
G01*
%ADD10C,0.254000*%


D10*
X7620Y38100D02*
X7765Y34779D01*
X8199Y31484D01*
X8918Y28239D01*
X9918Y25069D01*
X11190Y21998D01*
X12724Y19050D01*
X14510Y16247D01*
X16534Y13610D01*
X18779Y11159D01*
X21230Y8914D01*
X23867Y6890D01*
X26670Y5104D01*
X29618Y3570D01*
X32689Y2298D01*
X35859Y1298D01*
X39104Y579D01*
X42399Y145D01*
X45720Y0D01*
X960320Y0D01*
X963623Y144D01*
X966901Y576D01*
X970129Y1291D01*
X973283Y2286D01*
X976337Y3551D01*
X979270Y5078D01*
X982059Y6854D01*
X984682Y8867D01*
X987119Y11101D01*
X989353Y13538D01*
X991366Y16161D01*
X993142Y18950D01*
X994669Y21883D01*
X995934Y24937D01*
X996929Y28091D01*
X997644Y31319D01*
X998076Y34597D01*
X998220Y37900D01*
X998220Y949000D01*
X998074Y952338D01*
X997638Y955651D01*
X996915Y958913D01*
X995910Y962099D01*
X994632Y965186D01*
X993089Y968150D01*
X991294Y970968D01*
X989260Y973619D01*
X987002Y976082D01*
X984539Y978340D01*
X981888Y980374D01*
X979070Y982169D01*
X976106Y983712D01*
X973019Y984990D01*
X969833Y985995D01*
X966571Y986718D01*
X963258Y987154D01*
X959920Y987300D01*
X83820Y990600D01*
X49020Y990600D01*
X45412Y990442D01*
X41831Y989971D01*
X38305Y989189D01*
X34860Y988103D01*
X31524Y986721D01*
X28320Y985053D01*
X25274Y983113D01*
X22409Y980914D01*
X19746Y978474D01*
X17306Y975811D01*
X15107Y972946D01*
X13167Y969900D01*
X11499Y966696D01*
X10117Y963360D01*
X9031Y959915D01*
X8249Y956389D01*
X7778Y952808D01*
X7620Y949200D01*
X7620Y38100D01*
X112320Y595600D02*
X122320Y595600D01*
X122320Y623600D01*
X112320Y623600D01*
X112320Y595600D01*
X173320Y593100D02*
X183320Y593100D01*
X183320Y626100D01*
X173320Y626100D01*
X173320Y593100D01*
X133320Y556600D02*
X161320Y556600D01*
X161320Y566600D01*
X133320Y566600D01*
X133320Y556600D01*
X144540Y863064D02*
X144464Y861996D01*
X144311Y860935D01*
X144083Y859888D01*
X143781Y858860D01*
X143407Y857856D01*
X142962Y856881D01*
X142448Y855941D01*
X141869Y855040D01*
X141227Y854182D01*
X140525Y853372D01*
X139768Y852615D01*
X138958Y851913D01*
X138100Y851271D01*
X137199Y850692D01*
X136259Y850178D01*
X135284Y849733D01*
X134280Y849359D01*
X133252Y849057D01*
X132205Y848829D01*
X131144Y848676D01*
X130076Y848600D01*
X129004Y848600D01*
X127936Y848676D01*
X126875Y848829D01*
X125828Y849057D01*
X124800Y849359D01*
X123796Y849733D01*
X122821Y850178D01*
X121881Y850692D01*
X120980Y851271D01*
X120122Y851913D01*
X119312Y852615D01*
X118555Y853372D01*
X117853Y854182D01*
X117211Y855040D01*
X116632Y855941D01*
X116118Y856881D01*
X115673Y857856D01*
X115299Y858860D01*
X114997Y859888D01*
X114769Y860935D01*
X114616Y861996D01*
X114540Y863064D01*
X114540Y864136D01*
X114616Y865204D01*
X114769Y866265D01*
X114997Y867312D01*
X115299Y868340D01*
X115673Y869344D01*
X116118Y870319D01*
X116632Y871259D01*
X117211Y872160D01*
X117853Y873018D01*
X118555Y873828D01*
X119312Y874585D01*
X120122Y875287D01*
X120980Y875929D01*
X121881Y876508D01*
X122821Y877022D01*
X123796Y877467D01*
X124800Y877841D01*
X125828Y878143D01*
X126875Y878371D01*
X127936Y878524D01*
X129004Y878600D01*
X130076Y878600D01*
X131144Y878524D01*
X132205Y878371D01*
X133252Y878143D01*
X134280Y877841D01*
X135284Y877467D01*
X136259Y877022D01*
X137199Y876508D01*
X138100Y875929D01*
X138958Y875287D01*
X139768Y874585D01*
X140525Y873828D01*
X141227Y873018D01*
X141869Y872160D01*
X142448Y871259D01*
X142962Y870319D01*
X143407Y869344D01*
X143781Y868340D01*
X144083Y867312D01*
X144311Y866265D01*
X144464Y865204D01*
X144540Y864136D01*
X144540Y863064D01*
X441720Y710664D02*
X441644Y709596D01*
X441491Y708535D01*
X441263Y707488D01*
X440961Y706460D01*
X440587Y705456D01*
X440142Y704481D01*
X439628Y703541D01*
X439049Y702640D01*
X438407Y701782D01*
X437705Y700972D01*
X436948Y700215D01*
X436138Y699513D01*
X435280Y698871D01*
X434379Y698292D01*
X433439Y697778D01*
X432464Y697333D01*
X431460Y696959D01*
X430432Y696657D01*
X429385Y696429D01*
X428324Y696276D01*
X427256Y696200D01*
X426184Y696200D01*
X425116Y696276D01*
X424055Y696429D01*
X423008Y696657D01*
X421980Y696959D01*
X420976Y697333D01*
X420001Y697778D01*
X419061Y698292D01*
X418160Y698871D01*
X417302Y699513D01*
X416492Y700215D01*
X415735Y700972D01*
X415033Y701782D01*
X414391Y702640D01*
X413812Y703541D01*
X413298Y704481D01*
X412853Y705456D01*
X412479Y706460D01*
X412177Y707488D01*
X411949Y708535D01*
X411796Y709596D01*
X411720Y710664D01*
X411720Y711736D01*
X411796Y712804D01*
X411949Y713865D01*
X412177Y714912D01*
X412479Y715940D01*
X412853Y716944D01*
X413298Y717919D01*
X413812Y718859D01*
X414391Y719760D01*
X415033Y720618D01*
X415735Y721428D01*
X416492Y722185D01*
X417302Y722887D01*
X418160Y723529D01*
X419061Y724108D01*
X420001Y724622D01*
X420976Y725067D01*
X421980Y725441D01*
X423008Y725743D01*
X424055Y725971D01*
X425116Y726124D01*
X426184Y726200D01*
X427256Y726200D01*
X428324Y726124D01*
X429385Y725971D01*
X430432Y725743D01*
X431460Y725441D01*
X432464Y725067D01*
X433439Y724622D01*
X434379Y724108D01*
X435280Y723529D01*
X436138Y722887D01*
X436948Y722185D01*
X437705Y721428D01*
X438407Y720618D01*
X439049Y719760D01*
X439628Y718859D01*
X440142Y717919D01*
X440587Y716944D01*
X440961Y715940D01*
X441263Y714912D01*
X441491Y713865D01*
X441644Y712804D01*
X441720Y711736D01*
X441720Y710664D01*
M02*
