G04 EAGLE Gerber X2 export*
%TF.Part,Single*%
%TF.FileFunction,Soldermask,Bot,1*%
%TF.FilePolarity,Negative*%
%TF.GenerationSoftware,Autodesk,EAGLE,8.6.3*%
%TF.CreationDate,2019-03-08T18:09:36Z*%
G75*
%MOMM*%
%FSLAX34Y34*%
%LPD*%
%AMOC8*
5,1,8,0,0,1.08239X$1,22.5*%
G01*
%ADD10P,2.309387X8X22.500000*%
%ADD11P,2.144431X8X292.500000*%
%ADD12C,1.981200*%
%ADD13P,1.951982X8X292.500000*%
%ADD14P,1.951982X8X22.500000*%
%ADD15C,1.524000*%
%ADD16C,1.993900*%
%ADD17C,2.203200*%
%ADD18C,2.184400*%
%ADD19P,1.649562X8X292.500000*%
%ADD20R,2.703200X2.703200*%
%ADD21C,3.203200*%
%ADD22C,1.661200*%
%ADD23C,3.519200*%
%ADD24C,1.159600*%
%ADD25C,5.029200*%


D10*
X274320Y939800D03*
X312420Y939800D03*
D11*
X426720Y927100D03*
D12*
X426720Y952500D03*
D13*
X363220Y952500D03*
X363220Y927100D03*
D11*
X134620Y927100D03*
D12*
X134620Y952500D03*
D13*
X185420Y952500D03*
X185420Y927100D03*
D14*
X668020Y800100D03*
X693420Y800100D03*
X731520Y800100D03*
X756920Y800100D03*
X287020Y571500D03*
X312420Y571500D03*
X363220Y571500D03*
X388620Y571500D03*
D15*
X845820Y70104D02*
X845820Y56896D01*
X845820Y133096D02*
X845820Y146304D01*
X845820Y234696D02*
X845820Y247904D01*
X845820Y310896D02*
X845820Y324104D01*
X845820Y412496D02*
X845820Y425704D01*
X845820Y488696D02*
X845820Y501904D01*
X845820Y590296D02*
X845820Y603504D01*
X845820Y666496D02*
X845820Y679704D01*
D10*
X236220Y939800D03*
D15*
X369316Y508000D02*
X382524Y508000D01*
X382524Y482600D02*
X369316Y482600D01*
X369316Y355600D02*
X382524Y355600D01*
X382524Y330200D02*
X369316Y330200D01*
X369316Y457200D02*
X382524Y457200D01*
X382524Y431800D02*
X369316Y431800D01*
X369316Y381000D02*
X382524Y381000D01*
X382524Y406400D02*
X369316Y406400D01*
X445516Y330200D02*
X458724Y330200D01*
X458724Y355600D02*
X445516Y355600D01*
X445516Y381000D02*
X458724Y381000D01*
X458724Y406400D02*
X445516Y406400D01*
X445516Y431800D02*
X458724Y431800D01*
X458724Y457200D02*
X445516Y457200D01*
X445516Y482600D02*
X458724Y482600D01*
X458724Y508000D02*
X445516Y508000D01*
X382524Y254000D02*
X369316Y254000D01*
X369316Y228600D02*
X382524Y228600D01*
X382524Y101600D02*
X369316Y101600D01*
X369316Y76200D02*
X382524Y76200D01*
X382524Y203200D02*
X369316Y203200D01*
X369316Y177800D02*
X382524Y177800D01*
X382524Y127000D02*
X369316Y127000D01*
X369316Y152400D02*
X382524Y152400D01*
X445516Y76200D02*
X458724Y76200D01*
X458724Y101600D02*
X445516Y101600D01*
X445516Y127000D02*
X458724Y127000D01*
X458724Y152400D02*
X445516Y152400D01*
X445516Y177800D02*
X458724Y177800D01*
X458724Y203200D02*
X445516Y203200D01*
X445516Y228600D02*
X458724Y228600D01*
X458724Y254000D02*
X445516Y254000D01*
D16*
X80074Y38500D02*
X62167Y38500D01*
X62167Y88500D02*
X80074Y88500D01*
X80074Y140100D02*
X62167Y140100D01*
X62167Y190100D02*
X80074Y190100D01*
X80074Y241700D02*
X62167Y241700D01*
X62167Y291700D02*
X80074Y291700D01*
X80074Y343300D02*
X62167Y343300D01*
X62167Y393300D02*
X80074Y393300D01*
X80074Y444900D02*
X62167Y444900D01*
X62167Y494900D02*
X80074Y494900D01*
D17*
X178320Y599600D02*
X178320Y619600D01*
X117320Y619600D02*
X117320Y599600D01*
X137320Y561600D02*
X157320Y561600D01*
D18*
X778764Y101600D02*
X798576Y101600D01*
X778256Y161290D02*
X758444Y161290D01*
X758444Y41910D02*
X778256Y41910D01*
X656336Y41910D02*
X636524Y41910D01*
X636524Y161290D02*
X656336Y161290D01*
X778764Y279400D02*
X798576Y279400D01*
X778256Y339090D02*
X758444Y339090D01*
X758444Y219710D02*
X778256Y219710D01*
X656336Y219710D02*
X636524Y219710D01*
X636524Y339090D02*
X656336Y339090D01*
X778764Y457200D02*
X798576Y457200D01*
X778256Y516890D02*
X758444Y516890D01*
X758444Y397510D02*
X778256Y397510D01*
X656336Y397510D02*
X636524Y397510D01*
X636524Y516890D02*
X656336Y516890D01*
X778764Y635000D02*
X798576Y635000D01*
X778256Y694690D02*
X758444Y694690D01*
X758444Y575310D02*
X778256Y575310D01*
X656336Y575310D02*
X636524Y575310D01*
X636524Y694690D02*
X656336Y694690D01*
D15*
X185420Y190500D02*
X172212Y190500D01*
X172212Y165100D02*
X185420Y165100D01*
X261620Y165100D02*
X274828Y165100D01*
X274828Y190500D02*
X261620Y190500D01*
X185420Y139700D02*
X172212Y139700D01*
X261620Y139700D02*
X274828Y139700D01*
X185420Y292100D02*
X172212Y292100D01*
X172212Y266700D02*
X185420Y266700D01*
X261620Y266700D02*
X274828Y266700D01*
X274828Y292100D02*
X261620Y292100D01*
X185420Y241300D02*
X172212Y241300D01*
X261620Y241300D02*
X274828Y241300D01*
X185420Y393700D02*
X172212Y393700D01*
X172212Y368300D02*
X185420Y368300D01*
X261620Y368300D02*
X274828Y368300D01*
X274828Y393700D02*
X261620Y393700D01*
X185420Y342900D02*
X172212Y342900D01*
X261620Y342900D02*
X274828Y342900D01*
X185420Y88900D02*
X172212Y88900D01*
X172212Y63500D02*
X185420Y63500D01*
X261620Y63500D02*
X274828Y63500D01*
X274828Y88900D02*
X261620Y88900D01*
X185420Y38100D02*
X172212Y38100D01*
X261620Y38100D02*
X274828Y38100D01*
X185420Y495300D02*
X172212Y495300D01*
X172212Y469900D02*
X185420Y469900D01*
X261620Y469900D02*
X274828Y469900D01*
X274828Y495300D02*
X261620Y495300D01*
X185420Y444500D02*
X172212Y444500D01*
X261620Y444500D02*
X274828Y444500D01*
D16*
X80074Y571900D02*
X62167Y571900D01*
X62167Y621900D02*
X80074Y621900D01*
D19*
X566420Y660400D03*
X566420Y584200D03*
X566420Y317500D03*
X566420Y241300D03*
X566420Y495300D03*
X566420Y419100D03*
X134620Y101600D03*
X134620Y25400D03*
X312420Y114300D03*
X312420Y38100D03*
X312420Y419100D03*
X312420Y342900D03*
X134620Y508000D03*
X134620Y431800D03*
X312420Y520700D03*
X312420Y444500D03*
X566420Y139700D03*
X566420Y63500D03*
X134620Y203200D03*
X134620Y127000D03*
X312420Y215900D03*
X312420Y139700D03*
X134620Y304800D03*
X134620Y228600D03*
X312420Y317500D03*
X312420Y241300D03*
X134620Y406400D03*
X134620Y330200D03*
D16*
X938467Y292500D02*
X956374Y292500D01*
X956374Y342500D02*
X938467Y342500D01*
X938467Y495700D02*
X956374Y495700D01*
X956374Y545700D02*
X938467Y545700D01*
X938467Y597300D02*
X956374Y597300D01*
X956374Y647300D02*
X938467Y647300D01*
X938467Y394100D02*
X956374Y394100D01*
X956374Y444100D02*
X938467Y444100D01*
D15*
X769620Y945896D02*
X769620Y959104D01*
X744220Y959104D02*
X744220Y945896D01*
X718820Y945896D02*
X718820Y959104D01*
X693420Y959104D02*
X693420Y945896D01*
X668020Y945896D02*
X668020Y959104D01*
X642620Y959104D02*
X642620Y945896D01*
X617220Y945896D02*
X617220Y959104D01*
X591820Y959104D02*
X591820Y945896D01*
X566420Y945896D02*
X566420Y959104D01*
X541020Y959104D02*
X541020Y945896D01*
D19*
X502920Y76200D03*
X502920Y50800D03*
X528320Y50800D03*
X502920Y254000D03*
X502920Y228600D03*
X528320Y228600D03*
X502920Y431800D03*
X502920Y406400D03*
X528320Y406400D03*
X502920Y596900D03*
X502920Y571500D03*
X528320Y571500D03*
D20*
X76200Y873760D03*
X76200Y701040D03*
X472440Y701040D03*
X472440Y873760D03*
D21*
X129540Y863600D03*
X426720Y711200D03*
D22*
X913030Y787900D02*
X927610Y787900D01*
X927610Y807900D02*
X913030Y807900D01*
X913030Y762900D02*
X927610Y762900D01*
X927610Y832900D02*
X913030Y832900D01*
D23*
X947420Y732200D03*
X947420Y863600D03*
D24*
X748665Y20955D03*
X198120Y533400D03*
X617220Y749300D03*
X591820Y838200D03*
X528320Y927100D03*
X579120Y558800D03*
X744220Y635000D03*
X439420Y215900D03*
X591820Y482600D03*
X668020Y838200D03*
X845820Y787400D03*
X350520Y596900D03*
X515620Y914400D03*
X515620Y939800D03*
X515620Y965200D03*
X502920Y381000D03*
X248920Y622300D03*
X668020Y88900D03*
X858520Y800100D03*
X845820Y901700D03*
X782320Y901700D03*
X401320Y520700D03*
X401320Y635000D03*
X579120Y927100D03*
X414020Y520700D03*
X414020Y635000D03*
X582974Y901248D03*
X693420Y914400D03*
X388620Y609600D03*
X845820Y812800D03*
D25*
X960120Y952500D03*
X960120Y38100D03*
X45720Y952500D03*
M02*
